<svg width="80" height="80" viewBox="0 0 80 80" fill="none" xmlns="http://www.w3.org/2000/svg">
<rect width="80" height="80" rx="20" fill="#EEEEEE"/>
<path d="M50.2806 12.3077H29.6566C27.0817 12.3077 24.9862 14.4032 24.9862 16.9781V62.9586C24.9862 65.5335 27.0817 67.6296 29.6566 67.6296H50.2812C52.8561 67.6296 54.9522 65.5341 54.9522 62.9586V16.9781C54.9516 14.4032 52.8561 12.3077 50.2806 12.3077ZM51.8782 62.9586C51.8782 63.8395 51.1614 64.5562 50.2806 64.5562H29.6566C28.7758 64.5562 28.0596 63.8395 28.0596 62.9586V16.9781C28.059 16.0979 28.7758 15.3812 29.6566 15.3812H32.0164C32.1399 16.9972 33.2292 18.277 34.5587 18.277H45.3791C46.7086 18.277 47.7979 16.9972 47.9214 15.3812H50.2812C51.1621 15.3812 51.8788 16.0979 51.8788 16.9781L51.8782 62.9586Z" fill="black"/>
<path d="M41.1267 16.3253H35.2392C34.8999 16.3253 34.6245 16.0499 34.6245 15.7106C34.6245 15.3713 34.8999 15.0959 35.2392 15.0959H41.1267C41.4666 15.0959 41.7414 15.3713 41.7414 15.7106C41.7414 16.0499 41.4666 16.3253 41.1267 16.3253Z" fill="white"/>
<path d="M44.2659 16.2736C44.5751 16.2736 44.8258 16.0229 44.8258 15.7137C44.8258 15.4044 44.5751 15.1537 44.2659 15.1537C43.9566 15.1537 43.7059 15.4044 43.7059 15.7137C43.7059 16.0229 43.9566 16.2736 44.2659 16.2736Z" fill="white"/>
</svg>
